<svg id="Calque_1" data-name="Calque 1" xmlns="http://www.w3.org/2000/svg" viewBox="0 0 1203.94 205.57"><defs><style>.cls-1{fill:#fff;}</style></defs><path class="cls-1" d="M134.88,280.53l0,0h0Z" transform="translate(-73.83 -152.53)"/><path class="cls-1" d="M105,212.57c-.14,1.13-.25,2.26-.32,3.38a69.22,69.22,0,0,0,32.64,63,16.22,16.22,0,0,0,5.49,2.45c10.38,1.91,19.63-9.67,17.2-19.5a13.38,13.38,0,0,0-2.68-5.35c-2.81-3.37-7-5.13-10.28-7.92a37.24,37.24,0,0,1-4.57-5.06,58,58,0,0,1-4.74-6.71,46.64,46.64,0,0,1-6.11-34.25c.23-1.14.51-2.25.83-3.36,7.15-25,34.39-40.29,62.57-34.45a59.09,59.09,0,0,1,14.84,5.2,56.61,56.61,0,0,1,12.41,8.57,53.73,53.73,0,0,1,9.36,11.19,50,50,0,0,1,5.79,13.07,46.3,46.3,0,0,1,1,4.81c.13.84.24,1.67.35,2.51a4.73,4.73,0,0,0,.35,1.91,2.32,2.32,0,0,0,1.06.75c-.17-1.22-.29-2.44-.47-3.65a20.4,20.4,0,0,0-.71-3.56,66.89,66.89,0,0,0-2.09-7.35,68,68,0,0,0-54.32-45l-2-.26A68.1,68.1,0,0,0,105,212.12,3.47,3.47,0,0,0,105,212.57Z" transform="translate(-73.83 -152.53)"/><path class="cls-1" d="M170.21,341.33c1-.47,2-1,3-1.49a69.22,69.22,0,0,0,36.88-60.63,16.23,16.23,0,0,0-.76-6c-3.77-9.87-18.47-11.74-25.6-4.56a13.4,13.4,0,0,0-3.18,5.07c-1.42,4.16-.76,8.62-1.42,12.9a37.66,37.66,0,0,1-2,6.53,57.23,57.23,0,0,1-3.27,7.54,46.61,46.61,0,0,1-26.09,23c-1.1.39-2.19.74-3.3,1-25.09,6.89-52.29-8.45-61.95-35.56a59.53,59.53,0,0,1-3.27-15.38,56.69,56.69,0,0,1,.88-15A53.51,53.51,0,0,1,84.92,245a49.39,49.39,0,0,1,8.16-11.74,44.11,44.11,0,0,1,3.57-3.4c.64-.55,1.3-1.07,1.95-1.6.47-.39,1.18-.73,1.46-1.3a2.35,2.35,0,0,0,.08-1.29c-1,.78-1.93,1.51-2.87,2.3a20.69,20.69,0,0,0-2.67,2.45A65.66,65.66,0,0,0,89.4,236a68.39,68.39,0,0,0-15.5,40.31,67.86,67.86,0,0,0,5.29,29.48c.26.61.52,1.21.79,1.8a68.11,68.11,0,0,0,89.81,33.91Z" transform="translate(-73.83 -152.53)"/><path class="cls-1" d="M251.91,225.2c-.9-.69-1.82-1.37-2.75-2a69.21,69.21,0,0,0-70.84-4.2,16.19,16.19,0,0,0-4.92,3.47c-7,7.95-1.73,21.81,8,24.75a13.4,13.4,0,0,0,6,.44c4.33-.7,8-3.37,12.06-4.79a36.93,36.93,0,0,1,6.68-1.33,57.72,57.72,0,0,1,8.2-.64A47.84,47.84,0,0,1,241.62,249a49.51,49.51,0,0,1,5.21,4.14c.85.78,1.67,1.59,2.45,2.43,17.84,19,17,50.16-2.4,71.38a59.2,59.2,0,0,1-12.06,10.1,56.89,56.89,0,0,1-13.71,6.28,54.1,54.1,0,0,1-14.4,2.32A50,50,0,0,1,192.52,344a45,45,0,0,1-4.68-1.56c-.78-.31-1.55-.64-2.33-1a4.63,4.63,0,0,0-1.83-.68,2.26,2.26,0,0,0-1.18.53c1.13.47,2.24,1,3.38,1.46A19.86,19.86,0,0,0,189.3,344a68.18,68.18,0,0,0,36.44,1.58,68.35,68.35,0,0,0,13.82-4.8,67.47,67.47,0,0,0,23.57-18.48c.42-.5.82-1,1.22-1.54a68.09,68.09,0,0,0-12.09-95.22A3.17,3.17,0,0,0,251.91,225.2Z" transform="translate(-73.83 -152.53)"/><path class="cls-1" d="M418.52,225.81c-3.79-6.3-14.19-12.29-26.17-12.29-15.45,0-22.86,6.46-22.86,14.66,0,9.62,11.35,12.3,24.59,13.87,23,2.84,44.46,8.83,44.46,35.16,0,24.6-21.76,35.16-46.35,35.16-22.55,0-39.89-6.94-48.09-27.12l17.35-9c4.88,12.14,17.65,17.5,31.05,17.5,13.09,0,25.39-4.58,25.39-16.56,0-10.4-10.88-14.66-25.54-16.24C369.8,258.29,349,252.3,349,227.55c0-22.7,22.39-32,42.73-32.16,17.18,0,35,4.88,43.35,21.91Z" transform="translate(-73.83 -152.53)"/><path class="cls-1" d="M506.49,309.53V267.91c0-10.25-5.36-19.55-15.92-19.55-10.41,0-16.56,9.3-16.56,19.55v41.62H454.78V231.65h17.81l1.42,9.46c4.1-7.89,13.09-10.72,20.5-10.72,9.3,0,18.6,3.78,23,14.5,6.93-11,15.92-14.19,26-14.19,22.07,0,33,13.56,33,36.89v41.94H557.26V267.59c0-10.24-4.26-18.91-14.67-18.91s-16.87,9-16.87,19.23v41.62Z" transform="translate(-73.83 -152.53)"/><path class="cls-1" d="M617,209.89c0,15-22.71,15-22.71,0S617,194.91,617,209.89Zm-21,21.6v78h19.23v-78Z" transform="translate(-73.83 -152.53)"/><path class="cls-1" d="M651.69,199.33v110.2H632.61V199.33Z" transform="translate(-73.83 -152.53)"/><path class="cls-1" d="M685,277.53c1.27,9.61,9.62,16.55,23.18,16.55,7.1,0,16.4-2.68,20.81-7.25L741.24,299c-8.2,8.51-21.6,12.61-33.42,12.61-26.81,0-42.73-16.55-42.73-41.46,0-23.65,16.08-40.68,41.31-40.68,26,0,42.25,16.08,39.25,48.09Zm42.26-15.93c-1.26-10.09-9.15-15.13-20.18-15.13-10.41,0-18.92,5-21.76,15.13Z" transform="translate(-73.83 -152.53)"/><path class="cls-1" d="M876,309.53H793.42V199.17H876v20.18h-62v25.38h59.76v19.4H814.07V289h62Z" transform="translate(-73.83 -152.53)"/><path class="cls-1" d="M947.92,309.53V268.86c0-11.83-6.46-20.82-18.76-20.82-11.82,0-19.86,9.94-19.86,21.76v39.73H890.22V231.65h17.19l1.26,10.56c7.88-7.72,15.76-11.67,25.54-11.67,18.29,0,32.95,13.72,32.95,38.16v40.83Z" transform="translate(-73.83 -152.53)"/><path class="cls-1" d="M1044.73,223.92l14.18,10.72-8.67,11c6,6.78,8.2,14.5,8.2,23,0,9.62-3.62,23.17-16.4,29,12.93,6.46,16.09,15.76,16.09,25.7,0,21.44-16.4,34.68-39,34.68s-39.41-13.72-39.41-34.68h19.08c0,10.09,9.3,16.71,20.33,16.71s19.71-6,19.71-16.71-10.09-15.61-19.71-15.61c-24.28,0-39.41-14.82-39.41-39.1s17.66-39.42,39.41-39.42c6.15,0,12.46.79,17.82,4.42ZM998.85,268.7c0,13.56,9.14,21.6,20.33,21.6s20.18-8.2,20.18-21.6-9.14-21.92-20.18-21.92S998.85,255.14,998.85,268.7Z" transform="translate(-73.83 -152.53)"/><path class="cls-1" d="M1091.7,209.89c0,15-22.7,15-22.7,0S1091.7,194.91,1091.7,209.89Zm-21,21.6v78H1090v-78Z" transform="translate(-73.83 -152.53)"/><path class="cls-1" d="M1164.54,309.53V268.86c0-11.83-6.46-20.82-18.76-20.82-11.83,0-19.87,9.94-19.87,21.76v39.73h-19.07V231.65H1124l1.26,10.56c7.89-7.72,15.77-11.67,25.54-11.67,18.29,0,33,13.72,33,38.16v40.83Z" transform="translate(-73.83 -152.53)"/><path class="cls-1" d="M1216.72,277.53c1.27,9.61,9.62,16.55,23.18,16.55,7.09,0,16.4-2.68,20.81-7.25L1273,299c-8.2,8.51-21.6,12.61-33.42,12.61-26.81,0-42.73-16.55-42.73-41.46,0-23.65,16.08-40.68,41.31-40.68,26,0,42.25,16.08,39.25,48.09ZM1259,261.6c-1.26-10.09-9.15-15.13-20.18-15.13-10.41,0-18.92,5-21.76,15.13Z" transform="translate(-73.83 -152.53)"/></svg>