<svg id="Calque_1" data-name="Calque 1" xmlns="http://www.w3.org/2000/svg" viewBox="0 0 1366 768"><path d="M609.2,331.42l-.06-.07v0S609.18,331.42,609.2,331.42Z"/><path d="M555.7,209.9q-.36,3-.56,6A123.75,123.75,0,0,0,613.5,328.63c3,1.91,6.27,3.73,9.82,4.38,18.57,3.42,35.09-17.3,30.75-34.86a24,24,0,0,0-4.79-9.57c-5-6-12.47-9.17-18.38-14.16-3.1-2.61-5.62-5.93-8.17-9a102.75,102.75,0,0,1-8.48-12,85.49,85.49,0,0,1-12.52-49.46,88.55,88.55,0,0,1,1.59-11.78c.43-2,.91-4,1.49-6,12.79-44.74,61.5-72,111.88-61.6a105.85,105.85,0,0,1,26.54,9.3,101.05,101.05,0,0,1,22.18,15.32,96.38,96.38,0,0,1,16.74,20,89.38,89.38,0,0,1,10.35,23.37,84.07,84.07,0,0,1,1.87,8.61c.24,1.49.43,3,.64,4.48.14,1.08,0,2.48.62,3.42a4.11,4.11,0,0,0,1.9,1.33c-.31-2.17-.52-4.35-.85-6.52a36,36,0,0,0-1.27-6.36,117.7,117.7,0,0,0-3.73-13.14A122.36,122.36,0,0,0,744.5,123.2,120.62,120.62,0,0,0,721,110.89a122,122,0,0,0-26.42-7c-1.16-.17-2.32-.32-3.48-.46A121.77,121.77,0,0,0,555.82,209.1C555.77,209.37,555.74,209.63,555.7,209.9Z"/><path d="M672.36,440.13c1.84-.84,3.67-1.72,5.45-2.66a123.78,123.78,0,0,0,66-108.42c0-3.6-.08-7.29-1.37-10.66-6.72-17.64-33-21-45.76-8.16A23.9,23.9,0,0,0,691,319.3c-2.54,7.43-1.36,15.42-2.55,23.06-.62,4-2.15,7.88-3.48,11.68a104.67,104.67,0,0,1-5.85,13.49,83.59,83.59,0,0,1-46.65,41.16c-2,.7-3.91,1.31-5.9,1.85C581.65,422.86,533,395.43,515.76,347a105.67,105.67,0,0,1-5.85-27.5,100.75,100.75,0,0,1,1.56-26.91,96,96,0,0,1,8.39-24.7,89.38,89.38,0,0,1,14.59-21,81.28,81.28,0,0,1,6.38-6.07c1.14-1,2.32-1.92,3.49-2.87.85-.69,2.11-1.3,2.6-2.32a4,4,0,0,0,.15-2.31c-1.69,1.39-3.45,2.71-5.12,4.12a35.49,35.49,0,0,0-4.78,4.38,119.13,119.13,0,0,0-9.29,10,121.18,121.18,0,0,0-14.37,21.89,121.38,121.38,0,0,0-3.89,102.9q.69,1.62,1.41,3.21a121.77,121.77,0,0,0,160.58,60.63C671.86,440.36,672.11,440.24,672.36,440.13Z"/><path d="M818.44,232.49c-1.61-1.24-3.25-2.44-4.91-3.58a123.76,123.76,0,0,0-126.67-7.5c-3.21,1.65-6.41,3.49-8.79,6.2-12.44,14.21-3.09,39,14.22,44.26a24,24,0,0,0,10.68.77c7.75-1.23,14.26-6,21.57-8.55,3.82-1.32,8-1.79,11.94-2.39a104.32,104.32,0,0,1,14.66-1.15,85.58,85.58,0,0,1,48.91,14.55,90,90,0,0,1,9.31,7.39c1.53,1.41,3,2.85,4.39,4.35,31.9,33.88,30.44,89.7-4.31,127.64a105.33,105.33,0,0,1-21.56,18,100.92,100.92,0,0,1-24.51,11.23,96.5,96.5,0,0,1-25.75,4.15,89.37,89.37,0,0,1-25.37-3.07,81.12,81.12,0,0,1-8.36-2.79c-1.4-.55-2.78-1.16-4.17-1.74-1-.43-2.14-1.26-3.27-1.22a4.13,4.13,0,0,0-2.11,1c2,.84,4,1.79,6,2.61a35.52,35.52,0,0,0,6.11,2.16,117.9,117.9,0,0,0,13.21,3.52A121.5,121.5,0,0,0,838.51,406c.74-.91,1.47-1.82,2.18-2.75A121.76,121.76,0,0,0,819.07,233C818.87,232.82,818.65,232.65,818.44,232.49Z"/><path d="M290.58,563.38c-3.79-6.3-14.19-12.29-26.17-12.29-15.45,0-22.86,6.46-22.86,14.66,0,9.62,11.35,12.3,24.59,13.87,23,2.84,44.46,8.83,44.46,35.16,0,24.6-21.76,35.16-46.35,35.16-22.55,0-39.89-6.94-48.09-27.12l17.34-9c4.89,12.14,17.66,17.5,31.06,17.5,13.09,0,25.39-4.58,25.39-16.56,0-10.4-10.88-14.66-25.54-16.24-22.55-2.68-43.36-8.67-43.36-33.42,0-22.71,22.39-32,42.73-32.17,17.18,0,35,4.89,43.35,21.92Z"/><path d="M378.55,647.1V605.48c0-10.25-5.36-19.55-15.92-19.55-10.41,0-16.56,9.3-16.56,19.55V647.1H326.84V569.22h17.81l1.42,9.46c4.1-7.89,13.09-10.72,20.5-10.72,9.3,0,18.6,3.78,23,14.5,6.93-11,15.92-14.19,26-14.19,22.07,0,32.95,13.56,32.95,36.89V647.1H429.32V605.16c0-10.24-4.26-18.92-14.67-18.92s-16.87,9-16.87,19.24V647.1Z"/><path d="M489.07,547.46c0,15-22.71,15-22.71,0S489.07,532.48,489.07,547.46Zm-21,21.6v78h19.23v-78Z"/><path d="M523.75,536.9V647.1H504.67V536.9Z"/><path d="M557,615.1c1.27,9.61,9.62,16.55,23.18,16.55,7.09,0,16.4-2.68,20.81-7.25l12.3,12.14c-8.2,8.51-21.6,12.61-33.43,12.61-26.8,0-42.72-16.55-42.72-41.46,0-23.65,16.08-40.68,41.31-40.68,26,0,42.25,16.08,39.25,48.09Zm42.26-15.93C598,589.08,590.12,584,579.09,584c-10.41,0-18.92,5-21.76,15.13Z"/><path d="M748.09,647.1H665.48V536.74h82.61v20.18h-62V582.3h59.76v19.4H686.13v24.91h62Z"/><path d="M820,647.1V606.43c0-11.83-6.46-20.82-18.76-20.82-11.82,0-19.86,9.94-19.86,21.76V647.1H762.28V569.22h17.19l1.26,10.56c7.88-7.73,15.76-11.67,25.54-11.67,18.29,0,33,13.72,33,38.16V647.1Z"/><path d="M916.78,561.49,931,572.21l-8.67,11c6,6.78,8.2,14.5,8.2,23,0,9.61-3.63,23.17-16.4,29C927,641.74,930.19,651,930.19,661c0,21.44-16.4,34.68-39,34.68S851.83,681.94,851.83,661H870.9c0,10.09,9.31,16.71,20.34,16.71S911,671.7,911,661s-10.09-15.61-19.71-15.61c-24.28,0-39.41-14.82-39.41-39.1s17.66-39.42,39.41-39.42c6.15,0,12.46.79,17.82,4.42ZM870.9,606.27c0,13.56,9.15,21.6,20.34,21.6,11,0,20.18-8.2,20.18-21.6s-9.14-21.92-20.18-21.92C880.05,584.35,870.9,592.71,870.9,606.27Z"/><path d="M963.76,547.46c0,15-22.7,15-22.7,0S963.76,532.48,963.76,547.46Zm-21,21.6v78H962v-78Z"/><path d="M1036.6,647.1V606.43c0-11.83-6.46-20.82-18.76-20.82-11.83,0-19.87,9.94-19.87,21.76V647.1H978.9V569.22h17.18l1.26,10.56c7.89-7.73,15.77-11.67,25.54-11.67,18.29,0,33,13.72,33,38.16V647.1Z"/><path d="M1088.78,615.1c1.27,9.61,9.62,16.55,23.18,16.55,7.09,0,16.4-2.68,20.81-7.25l12.3,12.14c-8.2,8.51-21.6,12.61-33.43,12.61-26.8,0-42.72-16.55-42.72-41.46,0-23.65,16.08-40.68,41.31-40.68,26,0,42.25,16.08,39.25,48.09ZM1131,599.17c-1.26-10.09-9.15-15.13-20.18-15.13-10.41,0-18.92,5-21.76,15.13Z"/></svg>