<svg id="Calque_1" data-name="Calque 1" xmlns="http://www.w3.org/2000/svg" viewBox="0 0 875.61 834.1"><defs><style>.cls-1{fill:#fff;}</style></defs><path class="cls-1" d="M325.63,616.89l-.14-.18v.06C325.53,616.83,325.57,616.89,325.63,616.89Z" transform="translate(-64.42 -69.21)"/><path class="cls-1" d="M197.62,326.11c-.58,4.82-1,9.66-1.35,14.46-6.84,108.88,47.23,212,139.64,269.65,7.32,4.57,15,8.91,23.5,10.47,44.44,8.18,84-41.39,73.59-83.41a57.31,57.31,0,0,0-11.47-22.9c-12-14.42-29.83-21.95-44-33.88-7.4-6.25-13.43-14.19-19.54-21.65a247.33,247.33,0,0,1-20.31-28.73c-21.46-35.55-32.5-76.44-29.94-118.36a209.27,209.27,0,0,1,3.8-28.19c1-4.88,2.18-9.63,3.56-14.36,30.62-107,147.17-172.38,267.72-147.38a253.24,253.24,0,0,1,63.51,22.24,242.25,242.25,0,0,1,53.07,36.66,229.42,229.42,0,0,1,40.06,47.86,213.56,213.56,0,0,1,24.76,55.93,192.83,192.83,0,0,1,4.49,20.6c.58,3.56,1,7.13,1.52,10.71.35,2.59,0,5.93,1.5,8.2,1,1.57,2.83,2.42,4.54,3.18-.75-5.19-1.24-10.43-2-15.61-.76-4.88-1.35-10.55-3-15.21a285.48,285.48,0,0,0-8.94-31.46,292.66,292.66,0,0,0-112.91-146.3A289.87,289.87,0,0,0,529.86,72.41q-4.15-.61-8.32-1.11c-159.15-19-303.64,94.07-323.64,252.88C197.77,324.82,197.7,325.46,197.62,326.11Z" transform="translate(-64.42 -69.21)"/><path class="cls-1" d="M476.76,877c4.42-2,8.79-4.13,13.05-6.37,96.58-50.74,156.55-150.51,157.81-259.43.1-8.63-.19-17.46-3.27-25.53-16.1-42.21-79-50.24-109.51-19.52a57.26,57.26,0,0,0-13.59,21.71c-6.08,17.77-3.26,36.89-6.1,55.18-1.48,9.57-5.14,18.85-8.33,27.94a248,248,0,0,1-14,32.28c-19.22,36.81-48.41,67.49-85.56,87.09a208.51,208.51,0,0,1-26.06,11.41c-4.69,1.66-9.36,3.14-14.11,4.41C259.71,835.69,143.33,770.06,102,654.08a253.53,253.53,0,0,1-14-65.82,242.36,242.36,0,0,1,3.74-64.4,229.88,229.88,0,0,1,20.07-59.09,213.53,213.53,0,0,1,34.91-50.22A194.3,194.3,0,0,1,162,400c2.73-2.35,5.55-4.59,8.35-6.87,2-1.64,5.06-3.11,6.23-5.54.82-1.69.6-3.67.36-5.53-4.05,3.33-8.27,6.47-12.27,9.85-3.78,3.19-8.32,6.64-11.43,10.49a285,285,0,0,0-22.24,24A291,291,0,0,0,87.35,725c1.09,2.58,2.21,5.15,3.38,7.69C157.2,878.56,328.9,943.23,475,877.78,475.58,877.56,476.17,877.29,476.76,877Z" transform="translate(-64.42 -69.21)"/><path class="cls-1" d="M826.32,380.15c-3.85-3-7.76-5.84-11.73-8.56-90.06-61.57-206.3-67.84-303.13-17.95-7.67,3.95-15.34,8.35-21,14.84-29.77,34-7.4,93.33,34,105.9A57.2,57.2,0,0,0,550,476.23c18.55-3,34.12-14.4,51.61-20.45,9.15-3.17,19.06-4.29,28.59-5.72a248.18,248.18,0,0,1,35.08-2.75c41.53-.26,82.31,11.17,117,34.82a208.62,208.62,0,0,1,22.28,17.68c3.67,3.37,7.16,6.8,10.51,10.41,76.33,81.06,72.84,214.63-10.3,305.43a253.33,253.33,0,0,1-51.6,43.19,242.3,242.3,0,0,1-58.65,26.86,230,230,0,0,1-61.61,9.93,213.48,213.48,0,0,1-60.73-7.33,195.48,195.48,0,0,1-20-6.69c-3.36-1.32-6.65-2.76-10-4.17-2.4-1-5.11-3-7.81-2.91-1.87.07-3.52,1.2-5,2.28,4.84,2,9.59,4.27,14.45,6.23,4.59,1.85,9.76,4.24,14.62,5.19a282.83,282.83,0,0,0,31.6,8.41A291,291,0,0,0,874.36,795.4q2.65-3.25,5.21-6.58c97.74-127,74.49-309-51.74-407.45C827.35,380.94,826.83,380.54,826.32,380.15Z" transform="translate(-64.42 -69.21)"/></svg>